{"title":"Trainwreck [2015] (No Cinavia) 1080p (Unrated)","uid":12950863,"size":3561861565,"categoryP":"video","categoryS":"hd___movies","magnet":"?xt=urn:btih:1e9aeb9ffa165491872c9937dada39628a239562&amp;dn=Trainwreck+%5B2015%5D+%28No+Cinavia%29+1080p+%28Unrated%29&amp;tr=udp%3A%2F%2Ftracker.leechers-paradise.org%3A6969&amp;tr=udp%3A%2F%2Fzer0day.ch%3A1337&amp;tr=udp%3A%2F%2Fopen.demonii.com%3A1337&amp;tr=udp%3A%2F%2Ftracker.coppersurfer.tk%3A6969&amp;tr=udp%3A%2F%2Fexodus.desync.com%3A6969","seeders":0,"leechers":0,"uploader":"AlienMethod","files":5,"time":1449725207,"description":"x264/mp4\r\n6-Channel    (audio 1)\r\n2-Channel    (audio 2)\r\nCinavia Removed (CinEx HD)\r\nEnglish Subs\r\n\r\n\r\n\r\n&quot;Having thought that monogamy was never possible, a commitment-phobic career \r\nwoman may have to face her fears when she meets a good guy.&quot;\r\n\r\n\r\nGeneral\r\nComplete name : F:TorrentsTrainwreck [2015] (NoCinavia) 1080p\r\nTrainwreck [2015] (NoCinavia) 1080p.mp4\r\nFormat : MPEG-4\r\nFormat profile : Base Media\r\nCodec ID : isom\r\nFile size : 3.32 GiB\r\nDuration : 2h 8mn\r\nOverall bit rate mode : Variable\r\nOverall bit rate : 3 688 Kbps\r\nEncoded date : UTC 2015-12-07 14:28:12\r\nTagged date : UTC 2015-12-07 14:28:12\r\nWriting application : My MP4Box GUI 0.6.0.6 \r\n\r\nVideo\r\nID : 1\r\nFormat : AVC\r\nFormat/Info : Advanced Video Codec\r\nFormat profile :   \r\nFormat settings, CABAC : Yes\r\nFormat settings, ReFrames : 5 frames\r\nCodec ID : avc1\r\nCodec ID/Info : Advanced Video Coding\r\nDuration : 2h 8mn\r\nBit rate : 2 850 Kbps\r\nMaximum bit rate : 12.6 Mbps\r\nWidth : 1 920 pixels\r\nHeight : 800 pixels\r\nDisplay aspect ratio : 2.40:1\r\nFrame rate mode : Constant\r\nFrame rate : 23.976 fps\r\nColor space : YUV\r\nChroma subsampling : 4:2:0\r\nBit depth : 8 bits\r\nScan type : Progressive\r\nBits/(Pixel*Frame) : 0.077\r\nStream size : 2.56 GiB (77%)\r\nTitle : Trainwreck (CinEx)_track1_und.h264\r\nWriting library : x264 core 146 r2538 121396c\r\nEncoded date : UTC 2015-12-07 14:28:12\r\nTagged date : UTC 2015-12-07 14:28:40\r\n\r\nAudio #1\r\nID : 2\r\nFormat : AC-3\r\nFormat/Info : Audio Coding 3\r\nMode extension : CM (complete main)\r\nFormat settings, Endianness : Big\r\nCodec ID : ac-3\r\nDuration : 2h 8mn\r\nBit rate mode : Constant\r\nBit rate : 640 Kbps\r\nChannel(s) : 6 channels\r\nChannel positions : Front: L C R, Side: L R, LFE\r\nSampling rate : 48.0 KHz\r\nBit depth : 16 bits\r\nCompression mode : Lossy\r\nStream size : 590 MiB (17%)\r\nTitle : Trainwreck (CinEx)_track2_und.ac3\r\nEncoded date : UTC 2015-12-07 14:28:35\r\nTagged date : UTC 2015-12-07 14:28:40\r\n\r\nAudio #2\r\nID : 3\r\nFormat : AAC\r\nFormat/Info : Advanced Audio Codec\r\nFormat profile : LC\r\nCodec ID : 40\r\nDuration : 2h 8mn\r\nBit rate mode : Variable\r\nBit rate : 192 Kbps\r\nMaximum bit rate : 254 Kbps\r\nChannel(s) : 2 channels\r\nChannel positions : Front: L R\r\nSampling rate : 48.0 KHz\r\nCompression mode : Lossy\r\nStream size : 178 MiB (5%)\r\nTitle : Trainwreck (CinEx)_track2_und_Output.m4a\r\nEncoded date : UTC 2015-12-07 14:28:38\r\nTagged date : UTC 2015-12-07 14:28:40","torrent":{"xt":"urn:btih:1e9aeb9ffa165491872c9937dada39628a239562","amp;dn":"Trainwreck+%5B2015%5D+%28No+Cinavia%29+1080p+%28Unrated%29","amp;tr":["udp%3A%2F%2Ftracker.leechers-paradise.org%3A6969","udp%3A%2F%2Fzer0day.ch%3A1337","udp%3A%2F%2Fopen.demonii.com%3A1337","udp%3A%2F%2Ftracker.coppersurfer.tk%3A6969","udp%3A%2F%2Fexodus.desync.com%3A6969"],"infoHash":"1e9aeb9ffa165491872c9937dada39628a239562","infoHashBuffer":{"type":"Buffer","data":[30,154,235,159,250,22,84,145,135,44,153,55,218,218,57,98,138,35,149,98]},"announce":[],"urlList":[]}}